<?xml version="1.0" encoding="UTF-8"?>
<!DOCTYPE svg PUBLIC "-//W3C//DTD SVG 1.1//EN" "http://www.w3.org/Graphics/SVG/1.1/DTD/svg11.dtd">
<svg version="1.1" xmlns="http://www.w3.org/2000/svg" xmlns:xlink="http://www.w3.org/1999/xlink" x="0" y="0" width="807" height="930" viewBox="0, 0, 807, 930">
  <g id="Layer_1">
    <g>
      <path d="M807,697.368 L807,232.63 L403.466,0.261 L0,232.63 L0,697.368 L403.466,929.739 L806.966,697.368 L807,697.368 z" fill="#073A53"/>
      <path d="M250.599,748.783 L217.869,790.127 L232.201,748.783 C232.201,748.783 250.582,749.266 250.582,748.783 L250.617,748.783 L250.599,748.783 z" fill="#F7DF1E"/>
      <path d="M190.272,659.205 C180.177,664.287 171.098,676.604 168.756,687.594 C166.413,698.585 162.744,719.98 147.24,725.097 C147.24,725.097 156.594,729.559 167.808,721.91 C179.023,714.279 187.894,698.189 185.862,684.718 C183.071,666.371 190.926,658.912 190.272,659.239 L190.272,659.205 z" fill="#F7DF1E"/>
      <path d="M470.049,583.201 C470.049,583.201 475.648,592.038 498.714,591.832 C521.764,591.591 526.69,582.34 516.372,570.488 C506.018,558.636 493.546,555.001 477.405,559.291 C461.246,563.614 445.536,575.88 455.028,594.381 C464.52,612.883 505.002,669.11 522.005,685.045 C522.005,685.045 537.112,661.134 539.731,642.116 C542.711,620.91 543.969,596.345 531.462,600.221 C518.99,604.063 481.488,614.743 470.049,583.184 L470.049,583.218 L470.049,583.201 z" fill="#F7DF1E"/>
      <path d="M583.107,545.509 C583.107,545.509 593.616,570.505 600.713,582.047 C607.81,593.623 611.91,597.034 632.531,604.304 C653.151,611.556 733.444,639.963 743.281,641.996 C743.281,641.996 662.712,583.856 654.96,577.982 C647.19,572.073 635.011,571.556 625.209,572.314 C609.878,573.434 595.907,565.286 583.073,545.544 L583.107,545.544 L583.107,545.509 z" fill="#F7DF1E"/>
      <path d="M613.822,636.845 C613.822,636.845 608.723,654.399 617.578,671.78 C626.467,689.162 636.303,691.402 646.105,692.745 C655.907,694.089 672.341,699.05 676.872,712.608 C676.872,712.608 682.35,695.019 667.07,682.805 C651.79,670.626 631.721,670.73 623.366,660.394 C613.667,648.387 614.684,642.685 613.84,636.81 L613.84,636.845 L613.822,636.845 z" fill="#F7DF1E"/>
      <path d="M560.144,690.213 L603.745,783.237 L565.881,740.928 C565.881,740.928 566.088,712.935 557.233,701.376 L560.11,690.213 L560.144,690.213 z" fill="#F7DF1E"/>
      <path d="M515.889,772.901 L510.756,810.799 L498.663,790.575 L515.889,772.901 z" fill="#F7DF1E"/>
      <path d="M721.954,525.957 C700.404,524.424 699.077,501.323 676.562,496.379 C654.047,491.435 632.496,499.721 608.827,492.365 L604.675,485.922 L608.706,476.758 L781.834,449.833 L608.672,422.89 C608.362,422.167 608.276,421.96 607.983,421.219 C613.65,413.226 623.16,403.304 634.667,404.992 C653.513,407.748 669.051,414.604 681.162,404.82 C693.272,395.035 694.323,377.584 716.614,383.269 C740.938,389.453 755.787,386.646 763.384,365.526 C763.384,365.526 744.986,374.208 727.897,365.887 C710.809,357.567 698.853,351.986 683.16,360.496 C667.466,369.005 659.232,367.386 652.703,365.216 C646.226,363.062 626.536,355.155 595.735,369.229 L731.015,260.288 L568.276,323.269 C568.362,313.432 570.498,299.289 581.23,294.087 C598.37,285.766 615.063,282.7 619.576,267.799 C624.09,252.898 615.149,237.894 636.769,230.038 C660.369,221.477 671.067,210.796 665.468,189.056 C665.468,189.056 655.149,206.576 636.338,209.315 C617.526,212.054 604.503,214.155 596.32,230.021 C588.138,245.887 580.403,249.177 573.805,251.055 C567.294,252.898 546.897,257.377 529.447,285.629 C529.102,285.456 529.24,285.525 528.895,285.353 L592.289,121.545 L482.16,258.324 C482.022,258.221 482.074,258.256 481.936,258.152 C497.733,228.936 491.445,209.022 489.791,202.441 C488.12,195.775 487.121,187.437 496.785,172.433 C506.449,157.428 501.781,145.094 494.787,127.419 C487.793,109.745 497.819,92.053 497.819,92.053 C476.182,98.031 472.272,112.639 476.595,137.359 C480.575,160.029 463.107,159.754 452.427,171.089 C441.763,182.424 447.431,198.428 448.757,217.429 C449.601,229.47 438.128,238.445 429.601,243.389 L402.745,70.727 L375.751,244.268 C375.182,244.233 375.406,244.25 374.838,244.199 C373.787,211.072 358.352,197.032 353.632,192.192 C348.843,187.265 343.778,180.564 344.605,162.734 C345.432,144.904 335.182,136.584 320.247,124.835 C305.311,113.087 305.105,92.742 305.105,92.742 C289.411,108.797 293.356,123.388 309.532,142.579 C324.364,160.167 309.118,168.729 305.604,183.888 C302.073,199.048 315.027,210.038 325.725,225.801 C332.357,235.568 327.327,248.712 322.538,257.291 L213.218,121.528 L276.612,285.336 C276.267,285.508 276.405,285.439 276.06,285.611 C258.61,257.36 238.214,252.898 231.702,251.038 C225.087,249.16 217.369,245.87 209.187,230.004 C201.004,214.138 187.981,212.037 169.169,209.298 C150.358,206.559 140.039,189.039 140.039,189.039 C134.44,210.779 145.138,221.46 168.739,230.021 C190.358,237.876 181.417,252.881 185.931,267.782 C190.444,282.683 207.137,285.749 224.277,294.07 C235.009,299.272 237.146,313.415 237.232,323.252 L74.492,260.271 L209.772,369.212 C178.971,355.138 159.281,363.045 152.804,365.198 C146.275,367.369 138.041,368.988 122.347,360.478 C106.654,351.968 94.716,357.55 77.61,365.87 C60.521,374.191 42.123,365.508 42.123,365.508 C49.72,386.628 64.569,389.436 88.893,383.252 C111.185,377.584 112.235,395.018 124.346,404.802 C136.456,414.587 151.977,407.731 170.84,404.975 C182.348,403.286 191.857,413.209 197.524,421.202 C197.214,421.926 197.128,422.132 196.835,422.873 L23.673,449.816 L196.801,476.741 L183.777,484.751 C178.799,487.817 175.009,492.486 173.045,497.981 L170.702,504.544 C168.187,511.59 162.951,517.378 156.112,520.376 C146.654,524.51 137.317,524.458 126.275,522.322 C108.256,518.808 93.493,524.338 81.469,532.452 C73.045,538.136 66.068,554.088 59.608,559.807 C53.148,565.527 37.885,560.927 37.885,560.927 C47.842,576.603 76.714,577.482 83.743,568.903 C96.456,553.365 116.421,550.161 133.286,555.57 C148.756,560.548 168.411,552.09 179.419,541.943 C189.858,532.365 189.014,520.169 203.691,511.521 C216.508,503.959 232.563,504.131 232.563,504.131 C232.012,511.556 228.997,524.889 219.54,534.657 C208.188,546.371 74.423,657.327 74.423,657.327 L220.487,587.37 C222.4,632.211 231.271,681.376 239.385,700.842 C242.882,709.197 247.688,717.018 253.528,724.925 C269.945,747.147 290.996,765.476 314.734,779.585 L314.906,779.481 C340.126,794.503 374.579,812.367 397.939,814.21 C414.459,810.834 417.009,800.928 417.009,786.027 C417.009,771.126 410.307,766.837 403.313,766.441 C396.302,766.027 391.617,761.462 387.207,755.157 C382.779,748.852 395.269,748.215 412.461,747.939 C429.67,747.629 433.133,739.36 437.043,729.266 C440.919,719.188 425.656,718.223 394.89,721.875 C368.877,724.942 360.678,720.721 358.576,717.173 C373.063,703.977 390.066,692.022 398.938,694.313 C413.839,698.258 416.716,689.817 413.081,687.267 C409.842,685.01 394.442,669.817 387.758,665.183 C387.052,664.666 379.902,660.066 380.178,659.257 C384.795,646.061 393.029,650.867 407.276,653.882 C421.522,656.879 434.407,640.428 431.513,634.864 C427.224,626.612 423.934,631.246 416.044,615.415 C407.913,581.961 415.803,526.543 450.687,516.396 C481.178,507.507 514.477,517.309 522.332,519.945 C523.107,520.221 523.865,519.532 523.727,518.756 L515.028,470.091 L508.327,439.428 C508.534,438.515 509.378,437.86 510.325,437.998 C546.398,442.942 570.567,487.817 582.401,504.682 C594.236,521.547 616.648,539.618 635.132,544.648 C653.633,549.73 661.144,541.444 673.651,541.788 C686.157,542.133 692.962,553.916 713.117,554.019 C733.238,554.123 740.628,544.648 752.583,544.476 C761.558,544.338 770.395,549.248 770.395,549.248 C766.037,537.585 743.47,527.508 721.902,525.974 L721.954,525.957 z M265.242,611.642 C269.256,622.667 250.979,629.541 243.364,620.721 C236.543,612.762 238.351,584.734 276.405,589.007 L276.439,589.007 C276.439,589.007 260.074,597.465 265.242,611.642 z M329.291,608.662 C291.806,613.296 282.073,588.696 282.073,588.696 L282.073,588.662 C307.034,597.361 326.19,599.963 328.757,581.995 C331.323,564.028 310.462,554.347 293.253,551.453 C276.732,548.696 255.767,542.564 255.767,534.071 C255.767,525.578 267.361,512.779 310.169,512.779 C352.977,512.779 364.243,536.999 366.965,548.3 C369.704,559.635 366.759,604.028 329.273,608.662 L329.291,608.662 z" fill="#F7DF1E"/>
    </g>
  </g>
</svg>
