<?xml version="1.0" encoding="UTF-8"?>
<!DOCTYPE svg PUBLIC "-//W3C//DTD SVG 1.1//EN" "http://www.w3.org/Graphics/SVG/1.1/DTD/svg11.dtd">
<svg version="1.1" xmlns="http://www.w3.org/2000/svg" xmlns:xlink="http://www.w3.org/1999/xlink" x="0" y="0" width="512" height="512" viewBox="0, 0, 512, 512">
  <g id="Background">
    <rect x="0" y="0" width="512" height="512" fill="#000000" fill-opacity="0"/>
  </g>
  <g id="Background"/>
  <g id="Layer_1">
    <path d="M217.198,3.484 C200.98,3.484 185.065,6.667 173.546,18.035 C162.027,29.403 158.389,45.545 158.389,62.294 L81.391,62.294 C70.706,62.294 61.99,71.009 61.99,81.694 L42.589,81.694 L42.589,120.496 L469.411,120.496 L469.411,81.694 L450.01,81.694 C450.01,71.009 441.294,62.294 430.609,62.294 L353.611,62.294 C353.611,45.545 349.973,29.403 338.454,18.035 C326.935,6.667 311.02,3.484 294.802,3.484 z M217.198,43.499 L294.802,43.499 C305.412,43.499 308.746,46 309.959,47.137 C311.171,48.273 313.597,51.456 313.597,62.294 L198.403,62.294 C198.403,51.456 200.829,48.273 202.041,47.137 C203.254,46 206.588,43.499 217.198,43.499 z M81.391,139.897 L81.391,450.313 C81.391,482.37 107.537,508.516 139.594,508.516 L372.406,508.516 C404.463,508.516 430.609,482.37 430.609,450.313 L430.609,139.897 z M158.995,198.1 L197.797,198.1 L197.797,430.912 L158.995,430.912 z M236.599,198.1 L275.401,198.1 L275.401,430.912 L236.599,430.912 z M314.203,198.1 L353.005,198.1 L353.005,430.912 L314.203,430.912 z" fill="#868686"/>
  </g>
</svg>
