<?xml version="1.0" encoding="UTF-8"?>
<!DOCTYPE svg PUBLIC "-//W3C//DTD SVG 1.1//EN" "http://www.w3.org/Graphics/SVG/1.1/DTD/svg11.dtd">
<svg version="1.1" xmlns="http://www.w3.org/2000/svg" xmlns:xlink="http://www.w3.org/1999/xlink" x="0" y="0" width="159" height="159" viewBox="0, 0, 159, 159">
  <g id="Background">
    <rect x="0" y="0" width="159" height="159" fill="#000000" fill-opacity="0"/>
  </g>
  <g id="Layer_1">
    <g>
      <path d="M148.689,92.902 L125.815,105.916 L125.62,106.013 L125.62,132.397 L148.689,119.286 L148.689,92.902 z" fill="#6C6C6C"/>
      <path d="M125.62,106.013 L102.747,119.028 L102.552,119.125 L102.552,145.509 L125.62,132.397 L125.62,106.013 z" fill="#969797"/>
      <path d="M33.38,132.075 L33.38,105.691 L10.311,92.451 L10.311,118.803 L33.38,132.075 z" fill="#C4C4C4"/>
      <path d="M56.448,145.348 L56.448,118.964 L33.38,105.691 L33.38,132.075 L56.448,145.348 z" fill="#C4C4C4"/>
      <path d="M79.516,158.62 L79.516,132.236 L56.448,118.964 L56.448,145.348 L79.516,158.62 z" fill="#9C9C9C"/>
      <path d="M102.552,119.124 L79.712,132.139 L79.516,132.236 L79.516,158.62 L102.552,145.509 L102.552,119.124 z" fill="#969797"/>
      <path d="M148.689,66.582 L125.615,79.666 L125.588,106.045 L125.62,106.045 L148.655,92.966 L148.689,66.582 z" fill="#7D7D7D"/>
      <path d="M125.62,79.661 L102.747,92.676 L102.552,92.773 L102.552,119.157 L125.62,106.046 L125.62,79.661 L125.62,79.694 L125.62,79.661 z" fill="#7D7D7D"/>
      <path d="M33.38,105.691 L33.38,79.339 L10.311,66.034 L10.311,92.418 L33.38,105.691 z" fill="#C4C4C4"/>
      <path d="M56.415,118.963 L56.448,92.612 L33.38,79.307 L33.38,105.691 L56.415,118.963 z" fill="#ACACAC"/>
      <path d="M79.483,132.268 L79.483,105.884 L56.448,92.612 L56.415,118.963 L56.448,118.996 L79.483,132.268 z" fill="#696969"/>
      <path d="M102.552,92.773 L79.679,105.755 L79.484,105.884 L79.484,132.268 L102.552,119.157 L102.552,92.773 z" fill="#636363"/>
      <path d="M79.484,26.764 L79.755,26.614 L102.552,13.653 L79.484,0.38 L56.448,13.492 L79.484,26.764 z" fill="#B6B6B6"/>
      <path d="M102.552,40.037 L102.747,39.908 L125.62,26.925 L102.552,13.653 L79.484,26.764 L102.552,40.037 z" fill="#A6A6A6"/>
      <path d="M125.62,53.31 L125.815,53.181 L148.655,40.198 L125.62,26.925 L102.552,40.037 L125.62,53.31 z" fill="#8E8E8E"/>
      <path d="M148.689,40.198 L125.815,53.181 L125.62,53.309 L125.62,79.661 L148.689,66.582 L148.689,66.55 L148.689,40.198 z" fill="#7D7D7D"/>
      <path d="M56.448,39.875 L56.676,39.746 L79.483,26.764 L56.448,13.491 L33.38,26.603 L56.448,39.875 z" fill="#C2C2C2"/>
      <path d="M79.484,53.148 L102.552,40.037 L79.484,26.764 L56.448,39.876 L79.484,53.148 z" fill="#C2C2C2"/>
      <path d="M102.552,66.421 L125.62,53.309 L102.552,39.94 L102.421,39.94 L102.552,39.94 L79.418,53.18 L102.552,66.421 z" fill="#777777"/>
      <path d="M125.62,53.277 L102.747,66.292 L102.552,66.421 L102.548,92.787 L125.649,79.646 L125.62,53.277 z" fill="#515151"/>
      <path d="M33.38,52.987 L33.575,52.858 L56.448,39.876 L33.38,26.603 L10.311,39.715 L33.38,52.987 z" fill="#D0D0D0"/>
      <path d="M33.38,79.339 L33.38,52.987 L10.311,39.715 L10.311,66.099 L33.38,79.339 z" fill="#C4C4C4"/>
      <path d="M56.48,66.296 L79.516,53.153 L56.48,39.912 L33.412,53.024 L56.48,66.296 z" fill="#BBBBBB"/>
      <path d="M56.448,92.612 L56.448,66.26 L33.38,52.987 L33.38,79.339 L33.38,79.371 L56.448,92.612 z" fill="#ACACAC"/>
      <path d="M79.516,79.5 L79.712,79.403 L102.559,66.421 L79.516,53.148 L56.448,66.26 L79.516,79.5 z" fill="#BBBBBB"/>
      <path d="M79.48,105.883 L79.516,79.5 L56.448,66.227 L56.448,92.579 L56.448,92.612 L79.48,105.883 z" fill="#ACACAC"/>
      <path d="M102.552,66.421 L79.712,79.403 L79.516,79.5 L79.516,79.532 L79.477,105.9 L102.552,92.773 L102.552,66.421 z" fill="#B6B6B6"/>
    </g>
  </g>
</svg>
