<?xml version="1.0" encoding="UTF-8"?>
<!DOCTYPE svg PUBLIC "-//W3C//DTD SVG 1.1//EN" "http://www.w3.org/Graphics/SVG/1.1/DTD/svg11.dtd">
<svg version="1.1" xmlns="http://www.w3.org/2000/svg" xmlns:xlink="http://www.w3.org/1999/xlink" x="0" y="0" width="800" height="800" viewBox="0, 0, 800, 800">
  <g id="Background">
    <rect x="0" y="0" width="800" height="800" fill="#000000" fill-opacity="0"/>
  </g>
  <g id="Background"/>
  <g id="Layer_1">
    <path d="M498,47.75 C541.354,47.75 576.5,82.896 576.5,126.25 L576.5,244.75 L636.5,244.75 C658.591,244.75 676.5,262.659 676.5,284.75 L676.5,673.75 C676.5,695.841 658.591,713.75 636.5,713.75 L163.5,713.75 C141.409,713.75 123.5,695.841 123.5,673.75 L123.5,284.75 C123.5,262.659 141.409,244.75 163.5,244.75 L224.5,244.75 L224.5,126.25 C224.5,82.896 259.646,47.75 303,47.75 L498,47.75 z M400,337.25 C358.855,337.25 325.5,370.605 325.5,411.75 C325.734,440.771 341.322,464.576 366.5,478.251 L366.5,616.25 L433.5,616.25 L433.5,477.978 C459.406,465.824 473.191,439.454 474.5,411.75 C474.5,370.605 441.145,337.25 400,337.25 z M498,124.75 L303,124.75 C302.172,124.75 301.5,125.422 301.5,126.25 L301.5,244.75 L499.5,244.75 L499.5,126.25 C499.5,125.422 498.828,124.75 498,124.75 z" fill="#A49100"/>
  </g>
</svg>
