<?xml version="1.0" encoding="UTF-8"?>
<!DOCTYPE svg PUBLIC "-//W3C//DTD SVG 1.1//EN" "http://www.w3.org/Graphics/SVG/1.1/DTD/svg11.dtd">
<svg version="1.1" xmlns="http://www.w3.org/2000/svg" xmlns:xlink="http://www.w3.org/1999/xlink" x="0" y="0" width="800" height="800" viewBox="0, 0, 800, 800">
  <g id="Background">
    <rect x="0" y="0" width="800" height="800" fill="#000000" fill-opacity="0"/>
  </g>
  <g id="Background"/>
  <g id="Layer_1">
    <path d="M601.376,550.452 L700.688,550.452 L700.688,311.998 L588.798,200.108 L518.572,270.334 L601.376,353.138 L601.376,550.452 L601.376,550.452 z M700.95,600.239 L556.305,600.239 L354.537,600.239 L271.733,517.435 L306.846,482.322 L375.237,550.714 L515.952,550.714 L377.334,411.834 L412.709,376.459 L551.327,515.077 L551.327,374.363 L483.197,306.233 L518.048,271.382 L345.889,98.437 L176.089,98.437 L176.089,98.437 L0,98.437 L99.05,197.488 L99.05,197.75 L99.574,197.75 L304.487,197.75 L377.072,270.334 L270.947,376.459 L198.362,303.875 L198.362,247.537 L99.05,247.537 L99.05,345.015 L270.947,516.911 L200.983,586.875 L312.873,698.765 L482.673,698.765 L800,698.765 L800,698.765 L700.95,600.239 L700.95,600.239 z" fill="#868686" display="none"/>
    <path d="M734.164,22.5 C761.412,22.5 783.5,44.588 783.5,71.836 L783.5,734.164 C783.5,761.412 761.412,783.5 734.165,783.5 L71.836,783.5 C44.588,783.5 22.5,761.412 22.5,734.164 L22.5,71.836 C22.5,44.588 44.588,22.5 71.836,22.5 L734.164,22.5 z M674.802,140.905 L131.198,140.905 L131.198,565.249 L266.406,565.249 L266.406,665.095 L539.594,665.095 L539.594,565.249 L674.802,565.249 L674.802,140.905 z" fill="#868686"/>
    <g>
      <path d="M201.922,208.856 L271.259,208.856 L271.259,333.663 L201.922,333.663 L201.922,208.856 z" fill="#868686"/>
      <path d="M312.862,208.856 L382.199,208.856 L382.199,333.663 L312.862,333.663 L312.862,208.856 z" fill="#868686"/>
      <path d="M423.801,208.856 L493.138,208.856 L493.138,333.663 L423.801,333.663 L423.801,208.856 z" fill="#868686"/>
      <path d="M534.741,208.856 L604.078,208.856 L604.078,333.663 L534.741,333.663 L534.741,208.856 z" fill="#868686"/>
    </g>
  </g>
</svg>
