<?xml version="1.0" encoding="UTF-8"?>
<!DOCTYPE svg PUBLIC "-//W3C//DTD SVG 1.1//EN" "http://www.w3.org/Graphics/SVG/1.1/DTD/svg11.dtd">
<svg version="1.1" xmlns="http://www.w3.org/2000/svg" xmlns:xlink="http://www.w3.org/1999/xlink" x="0" y="0" width="154" height="154" viewBox="0, 0, 154, 154">
  <g id="Background">
    <rect x="0" y="0" width="154" height="154" fill="#1A5E9A"/>
  </g>
  <g id="Layer_1">
    <g>
      <path d="M99.474,76.555 C97.059,72.579 93.498,69.833 88.798,68.325 L102.19,45.258 L102.19,40.828 L76.111,40.828 L66.9,40.828 L66.619,40.828 L53.498,85.416 L40.385,40.828 L30.884,40.828 L35.228,55.392 L26.36,85.416 L13.243,40.828 L3.744,40.828 L25.454,114.09 L26.36,114.09 L39.928,68.69 L53.498,114.09 L54.401,114.09 L72.991,51.361 L73.864,49.875 L89.163,49.875 L76.487,71.757 L76.487,76.099 L80.113,76.099 C84.761,76.099 88.16,77.517 90.335,80.353 C92.205,82.761 93.137,86.169 93.137,90.571 C93.137,94.553 92.265,97.96 90.517,100.792 C88.769,103.629 86.627,105.04 84.094,105.04 C81.685,105.04 79.584,104.244 77.801,102.646 C76.026,101.052 74.587,98.864 73.505,96.096 L66.083,99.165 C67.588,103.75 69.914,107.38 73.048,110.064 C76.181,112.744 79.869,114.09 84.093,114.09 C89.694,114.09 94.262,111.827 97.791,107.307 C101.322,102.786 103.093,97.203 103.093,90.571 C103.094,85.205 101.882,80.53 99.474,76.555 z" fill="#FFFFFF"/>
      <g>
        <path d="M139.906,40.418 L141.45,49.77 L135.994,60.189 C135.994,60.189 133.902,55.765 130.435,53.319 C127.509,51.258 125.597,50.81 122.62,51.427 C118.788,52.217 114.444,56.792 112.551,62.436 C110.28,69.19 110.26,72.457 110.184,75.461 C110.057,80.268 110.814,83.114 110.814,83.114 C110.814,83.114 107.51,77.001 107.539,68.042 C107.566,61.648 108.567,55.846 111.519,50.123 C114.127,45.098 117.999,42.077 121.434,41.719 C124.983,41.35 127.793,43.063 129.964,44.915 C132.239,46.858 134.536,51.111 134.536,51.111 L139.906,40.418 z" fill="#FFFFFF"/>
        <path d="M140.579,93.335 C140.579,93.335 138.166,97.635 136.669,99.295 C135.167,100.95 132.487,103.875 129.173,105.332 C125.854,106.79 124.12,107.067 120.84,106.753 C117.568,106.439 114.524,104.546 113.457,103.754 C112.394,102.963 109.674,100.632 108.135,98.467 C106.594,96.293 104.186,91.954 104.186,91.954 C104.186,91.954 105.524,96.305 106.368,98.15 C106.85,99.211 108.336,102.458 110.442,105.288 C112.401,107.935 116.219,112.475 122.026,113.5 C127.832,114.523 131.816,111.92 132.801,111.292 C133.786,110.661 135.867,108.916 137.182,107.509 C138.557,106.042 139.855,104.167 140.58,103.044 C141.111,102.221 141.963,100.555 141.963,100.555 L140.579,93.335 z" fill="#FFFFFF"/>
        <path d="M147.062,41.651 C147.691,41.651 147.982,41.828 147.982,42.265 C147.982,42.684 147.691,42.835 147.08,42.835 L146.51,42.835 L146.51,41.651 L147.062,41.651 L147.062,41.651 z M147.183,41.215 L145.837,41.215 L145.837,44.79 L146.509,44.79 L146.509,43.265 L147.174,43.265 L147.902,44.789 L148.653,44.789 L147.857,43.158 C148.373,43.054 148.672,42.704 148.672,42.195 C148.672,41.546 148.182,41.215 147.183,41.215 L147.183,41.215 z M149.835,43.089 C149.835,43.817 149.555,44.492 149.039,44.99 C148.498,45.517 147.823,45.796 147.079,45.796 C146.379,45.796 145.689,45.508 145.171,44.982 C144.654,44.456 144.367,43.782 144.367,43.064 C144.367,42.344 144.666,41.643 145.198,41.101 C145.698,40.592 146.371,40.32 147.104,40.32 C147.857,40.32 148.532,40.601 149.057,41.136 C149.565,41.643 149.835,42.328 149.835,43.089 L149.835,43.089 z M147.097,39.91 C146.246,39.91 145.486,40.214 144.909,40.803 C144.298,41.427 143.956,42.232 143.956,43.064 C143.956,43.897 144.28,44.666 144.874,45.27 C145.478,45.884 146.258,46.215 147.097,46.215 C147.919,46.215 148.715,45.884 149.337,45.279 C149.933,44.702 150.256,43.931 150.256,43.064 C150.256,42.222 149.922,41.433 149.345,40.847 C148.743,40.232 147.955,39.91 147.097,39.91 L147.097,39.91 z" fill="#FFFFFF"/>
      </g>
    </g>
  </g>
</svg>
